<svg width="74" height="55" viewBox="0 0 74 55" fill="none" xmlns="http://www.w3.org/2000/svg">
<path fill-rule="evenodd" clip-rule="evenodd" d="M29.3031 0.592924C30.0568 0.981851 30.3531 1.90917 29.9648 2.66414L3.867 53.4092C3.47873 54.1642 2.55296 54.4609 1.79924 54.072C1.04553 53.6831 0.749283 52.7558 1.13756 52.0008L27.2353 1.25571C27.6236 0.500739 28.5494 0.203998 29.3031 0.592924Z" fill="#345E40"/>
<path fill-rule="evenodd" clip-rule="evenodd" d="M21.7564 0.592924C22.5101 0.203998 23.4359 0.500739 23.8241 1.25571L49.9219 52.0008C50.3102 52.7558 50.0139 53.6831 49.2602 54.072C48.5065 54.4609 47.5807 54.1642 47.1925 53.4092L21.0947 2.66414C20.7064 1.90917 21.0027 0.981851 21.7564 0.592924Z" fill="#345E40"/>
<path fill-rule="evenodd" clip-rule="evenodd" d="M52.3306 0.592951C53.0843 0.981905 53.3805 1.90923 52.9922 2.66419L49.9219 8.63365C49.5336 9.38861 48.6078 9.68532 47.8541 9.29636C47.1004 8.90741 46.8042 7.98008 47.1925 7.22512L50.2628 1.25566C50.6511 0.500702 51.5769 0.203996 52.3306 0.592951Z" fill="#345E40"/>
<path fill-rule="evenodd" clip-rule="evenodd" d="M47.8542 6.56244C48.6079 6.17351 49.5336 6.47026 49.9219 7.22523L72.9494 52.0009C73.3376 52.7558 73.0414 53.6831 72.2877 54.0721C71.534 54.461 70.6082 54.1642 70.2199 53.4093L47.1925 8.63365C46.8042 7.87867 47.1004 6.95136 47.8542 6.56244Z" fill="#345E40"/>
<path fill-rule="evenodd" clip-rule="evenodd" d="M44.7838 0.592951C45.5375 0.203996 46.4632 0.500702 46.8516 1.25566L49.9219 7.22523C50.3102 7.9802 50.014 8.90741 49.2603 9.29636C48.5066 9.68532 47.5808 9.38861 47.1925 8.63365L44.1222 2.66419C43.7339 1.90923 44.0301 0.981905 44.7838 0.592951Z" fill="#345E40"/>
<path fill-rule="evenodd" clip-rule="evenodd" d="M25.9337 26.6178C26.7516 26.8413 27.2339 27.6866 27.0108 28.506C26.7528 29.4537 26.5036 30.3761 26.2613 31.2729C24.3703 38.2721 22.9004 43.7126 20.9409 47.4598C19.8109 49.6207 18.4564 51.3522 16.6524 52.5282C14.8352 53.7128 12.7022 54.2428 10.1781 54.2428H2.50228C1.65443 54.2428 0.967115 53.5543 0.967115 52.705C0.967115 51.8558 1.65443 51.1673 2.50228 51.1673H10.1781C12.2595 51.1673 13.7725 50.7362 14.9777 49.9506C16.196 49.1564 17.2402 47.9085 18.2211 46.0328C20.0129 42.6064 21.3854 37.5337 23.314 30.4062C23.5499 29.5341 23.7942 28.6312 24.0487 27.6968C24.2717 26.8774 25.1157 26.3944 25.9337 26.6178Z" fill="#345E40"/>
<path fill-rule="evenodd" clip-rule="evenodd" d="M25.0886 26.6285C25.9007 26.3844 26.7565 26.846 27.0001 27.6595C27.8583 30.5248 28.5612 33.1907 29.1956 35.5966C29.4184 36.4414 29.6327 37.2542 29.8423 38.0323C30.6585 41.0621 31.3986 43.5461 32.3004 45.5333C33.1958 47.5066 34.1996 48.8715 35.4746 49.7616C36.7357 50.642 38.4197 51.1673 40.8814 51.1673H71.5846C72.4325 51.1673 73.1198 51.8558 73.1198 52.705C73.1198 53.5543 72.4325 54.2427 71.5846 54.2427H40.8814C37.9699 54.2427 35.6241 53.6147 33.719 52.2847C31.8277 50.9643 30.5287 49.0615 29.5052 46.806C28.4881 44.5645 27.6929 41.8586 26.878 38.8336C26.6609 38.0276 26.442 37.1973 26.2163 36.3416C25.5851 33.9476 24.9015 31.3552 24.0593 28.5432C23.8157 27.7298 24.2765 26.8725 25.0886 26.6285Z" fill="#345E40"/>
<path fill-rule="evenodd" clip-rule="evenodd" d="M31.6704 8.11086C31.6704 7.2616 32.3577 6.57313 33.2056 6.57313H48.5572C49.405 6.57313 50.0924 7.2616 50.0924 8.11086C50.0924 8.96013 49.405 9.64859 48.5572 9.64859H33.2056C32.3577 9.64859 31.6704 8.96013 31.6704 8.11086Z" fill="#345E40"/>
</svg>
