<svg width="94" height="58" viewBox="0 0 94 58" fill="none" xmlns="http://www.w3.org/2000/svg">
<path fill-rule="evenodd" clip-rule="evenodd" d="M54.704 0.801809C55.3284 1.35063 55.3896 2.30168 54.8408 2.92604C53.4145 4.54862 50.7119 6.94484 49.5575 7.9284C42.7449 13.9379 32.9322 19.6194 23.9094 23.9277C14.9197 28.2201 6.47056 31.2651 2.37003 31.8631C1.54745 31.983 0.783369 31.4134 0.663412 30.5909C0.543455 29.7683 1.11304 29.0042 1.93563 28.8842C5.554 28.3566 13.6529 25.4891 22.6122 21.2112C31.5339 16.9512 41.0659 11.4076 47.5755 5.66249L47.5856 5.65366L47.5957 5.64501C48.7473 4.66444 51.3089 2.38434 52.5798 0.938584C53.1286 0.314224 54.0796 0.252988 54.704 0.801809Z" fill="#345E40"/>
<path fill-rule="evenodd" clip-rule="evenodd" d="M39.7817 0.801809C39.1573 1.35063 39.0961 2.30168 39.6449 2.92604C41.0712 4.54862 43.7738 6.94484 44.9282 7.9284C51.7407 13.9379 61.5534 19.6194 70.5763 23.9277C79.5659 28.2201 88.0151 31.2651 92.1156 31.8631C92.9382 31.983 93.7023 31.4134 93.8223 30.5909C93.9422 29.7683 93.3726 29.0042 92.55 28.8842C88.9317 28.3566 80.8328 25.4891 71.8734 21.2112C62.9517 16.9512 53.4198 11.4076 46.9101 5.66249L46.9001 5.65366L46.8899 5.64501C45.7384 4.66444 43.1767 2.38434 41.9059 0.938584C41.3571 0.314224 40.406 0.252988 39.7817 0.801809Z" fill="#345E40"/>
<path fill-rule="evenodd" clip-rule="evenodd" d="M75.564 23.7817C74.735 23.7194 74.0126 24.341 73.9504 25.1699C73.9102 25.7053 73.994 26.4247 74.115 27.1648C74.2431 27.9477 74.4386 28.8981 74.6852 29.9629C75.179 32.0951 75.8915 34.7463 76.722 37.5485C78.3778 43.1356 80.5347 49.4317 82.4113 53.4801C82.4912 53.6525 82.503 53.9973 82.2961 54.3614C82.09 54.7242 81.8555 54.7931 81.7661 54.7931H59.3469C56.753 54.7931 54.5159 53.0804 53.9058 50.6126C52.7651 45.9985 51.5206 40.4631 50.56 36.0744C50.08 33.8815 49.6714 31.9777 49.383 30.6223C49.2387 29.9447 49.1245 29.4042 49.0464 29.0333L48.9269 28.4642L48.9266 28.4625C48.9266 28.4625 48.9265 28.462 47.6546 28.7275L48.9266 28.4625C48.7567 27.6488 47.9592 27.1263 47.1455 27.2962C46.3317 27.466 45.8098 28.2634 45.9796 29.0771L47.3125 28.7989C45.9796 29.0771 45.9796 29.0771 45.9796 29.0771L46.1007 29.6537C46.1792 30.0265 46.2939 30.5691 46.4386 31.249C46.728 32.6088 47.1378 34.5184 47.6192 36.7181C48.5816 41.1145 49.8329 46.6812 50.9834 51.3351C51.9381 55.1966 55.4208 57.8034 59.3469 57.8034H81.7661C83.2411 57.8034 84.3409 56.8564 84.9135 55.8485C85.4855 54.8418 85.7205 53.461 85.1424 52.2141C83.3588 48.3663 81.2511 42.2362 79.6083 36.6931C78.7895 33.9303 78.0942 31.3404 77.6179 29.2838C77.3795 28.2542 77.1995 27.3733 77.0859 26.6789C76.9653 25.9417 76.9416 25.5379 76.9523 25.3953C77.0145 24.5663 76.3929 23.8439 75.564 23.7817Z" fill="#345E40"/>
<path fill-rule="evenodd" clip-rule="evenodd" d="M19.0991 23.7815C19.9282 23.7207 20.6495 24.3435 20.7103 25.1726C20.7492 25.704 20.6679 26.4209 20.5493 27.1626C20.4241 27.9461 20.2329 28.8978 19.9916 29.9646C19.5084 32.1007 18.8112 34.7568 17.9987 37.5638C16.3788 43.1601 14.2695 49.4632 12.4369 53.5034C12.3585 53.6763 12.3497 54.0157 12.5538 54.371C12.757 54.7248 12.9877 54.7931 13.0782 54.7931H34.7621C37.3695 54.7931 39.6161 53.0624 40.2154 50.5775C41.3279 45.9644 42.5402 40.4394 43.4757 36.0611C43.9431 33.8734 44.3408 31.9747 44.6216 30.6231C44.762 29.9474 44.8732 29.4085 44.9492 29.0387L45.0658 28.4696C45.0658 28.4696 45.0659 28.469 46.5408 28.7696C48.0157 29.0701 48.0156 29.0703 48.0156 29.0703L47.8979 29.6449C47.8214 30.0166 47.7099 30.5575 47.569 31.2355C47.2873 32.5914 46.8884 34.4958 46.4196 36.6901C45.4825 41.076 44.2637 46.6314 43.1418 51.2832C42.2045 55.1695 38.7086 57.8034 34.7621 57.8034H13.0782C11.6146 57.8034 10.5182 56.8711 9.94344 55.8704C9.36954 54.8713 9.13179 53.5025 9.69541 52.2599C11.4376 48.419 13.4994 42.2807 15.107 36.7267C15.9083 33.9586 16.589 31.3624 17.0554 29.3005C17.2889 28.2682 17.4653 27.3845 17.5767 26.6876C17.6948 25.9488 17.7188 25.5402 17.708 25.3926C17.6473 24.5636 18.2701 23.8422 19.0991 23.7815ZM46.8413 27.2947C47.6559 27.4607 48.1816 28.2558 48.0156 29.0703L46.5408 28.7696L45.0658 28.4696C45.2318 27.655 46.0268 27.1287 46.8413 27.2947Z" fill="#345E40"/>
</svg>
