<svg width="90" height="56" viewBox="0 0 90 56" fill="none" xmlns="http://www.w3.org/2000/svg">
<path d="M72.0791 35.9503H61.995C61.7689 35.9504 61.5515 35.8631 61.3886 35.7067C61.2256 35.5503 61.1297 35.337 61.121 35.1115C61.121 34.8801 61.2131 34.6582 61.377 34.4946C61.5409 34.331 61.7632 34.2391 61.995 34.2391H72.0791C72.3109 34.2391 72.5332 34.331 72.6971 34.4946C72.861 34.6582 72.9531 34.8801 72.9531 35.1115C72.9444 35.337 72.8485 35.5503 72.6855 35.7067C72.5226 35.8631 72.3052 35.9504 72.0791 35.9503Z" fill="#345E40"/>
<path d="M23.4735 55.2431C21.7117 55.2431 19.9895 54.7216 18.5247 53.7446C17.0598 52.7676 15.9181 51.379 15.2439 49.7543C14.5697 48.1296 14.3933 46.3418 14.737 44.617C15.0807 42.8922 15.9291 41.3079 17.1748 40.0644C18.4206 38.8209 20.0078 37.9741 21.7357 37.631C23.4636 37.2879 25.2547 37.464 26.8823 38.137C28.51 38.81 29.9012 39.9496 30.88 41.4118C31.8588 42.874 32.3812 44.5931 32.3812 46.3516C32.3812 48.7098 31.4427 50.9714 29.7722 52.6389C28.1017 54.3063 25.836 55.2431 23.4735 55.2431ZM23.4735 39.1713C22.0508 39.1713 20.66 39.5925 19.4771 40.3814C18.2941 41.1704 17.3722 42.2918 16.8277 43.6039C16.2833 44.9159 16.1408 46.3596 16.4184 47.7524C16.6959 49.1453 17.381 50.4247 18.387 51.4289C19.393 52.433 20.6748 53.1169 22.0702 53.3939C23.4655 53.671 24.9119 53.5288 26.2263 52.9854C27.5407 52.4419 28.6642 51.5216 29.4546 50.3408C30.245 49.16 30.6669 47.7718 30.6669 46.3516C30.6669 44.4473 29.909 42.621 28.56 41.2744C27.211 39.9278 25.3813 39.1713 23.4735 39.1713Z" fill="#345E40"/>
<path d="M72.0792 43.4325H30.4988C30.3477 43.433 30.1992 43.3927 30.069 43.3159C29.9389 43.2391 29.8319 43.1287 29.7593 42.9964C29.136 41.8781 28.2246 40.9465 27.1194 40.2979C26.0143 39.6493 24.7555 39.3073 23.4735 39.3073C22.1915 39.3073 20.9328 39.6493 19.8277 40.2979C18.7225 40.9465 17.8111 41.8781 17.1877 42.9964C17.1152 43.1287 17.0082 43.2391 16.878 43.3159C16.7479 43.3927 16.5994 43.433 16.4482 43.4325H1.59092C1.46391 43.4341 1.33808 43.4079 1.22222 43.3559C1.10636 43.304 1.00326 43.2274 0.920068 43.1316C0.836877 43.0358 0.775602 42.923 0.740526 42.8011C0.705449 42.6793 0.697406 42.5513 0.716957 42.426V25.2805C0.774415 21.0829 1.99099 16.9824 4.23278 13.4305C6.47456 9.87859 9.65464 7.0129 13.423 5.14887C21.0869 1.18965 36.2132 1.42452 36.9527 1.42452C37.6922 1.42452 52.684 1.18965 60.4824 5.14887C64.2507 7.0129 67.4308 9.87859 69.6726 13.4305C71.9144 16.9824 73.1309 21.0829 73.1884 25.2805V42.426C73.2181 42.5737 73.2089 42.7266 73.1617 42.8698C73.1146 43.0129 73.0311 43.1415 72.9194 43.2428C72.8076 43.3442 72.6716 43.415 72.5243 43.4482C72.3771 43.4814 72.2237 43.4761 72.0792 43.4325ZM71.306 41.5872V25.2805C71.2595 21.3646 70.1258 17.5384 68.031 14.2272C65.9363 10.916 62.9625 8.2496 59.4403 6.52453C52.1798 2.80018 37.0199 3.16926 36.8518 3.16926C36.6838 3.16926 21.4903 2.80018 14.1625 6.52453C10.6529 8.25892 7.6929 10.9293 5.61042 14.2398C3.52794 17.5503 2.40431 21.3717 2.36403 25.2805V41.5872H15.8096C16.6127 40.3189 17.7243 39.2742 19.0408 38.5502C20.3573 37.8262 21.836 37.4466 23.3391 37.4466C24.8422 37.4466 26.3208 37.8262 27.6373 38.5502C28.9539 39.2742 30.0655 40.3189 30.8686 41.5872H71.306Z" fill="#345E40"/>
<path d="M88.4491 43.4326L72.0792 43.4325C71.9608 43.4204 71.8462 43.3842 71.7424 43.3263C71.6385 43.2684 71.5476 43.1899 71.4753 43.0956C71.4029 43.0014 71.3505 42.8934 71.3214 42.7783C71.2923 42.6631 71.2871 42.5433 71.306 42.426C71.306 42.2036 71.3946 41.9902 71.5522 41.8329C71.7098 41.6756 71.9235 41.5872 72.1464 41.5872H88.4491C88.672 41.5872 88.8857 41.6756 89.0433 41.8329C89.2009 41.9902 89.2894 42.2036 89.2894 42.426C89.3086 42.5485 89.3014 42.6737 89.2682 42.7932C89.2351 42.9127 89.1768 43.0238 89.0973 43.119C89.0178 43.2143 88.9188 43.2915 88.8071 43.3456C88.6953 43.3996 88.5733 43.4293 88.4491 43.4326Z" fill="#345E40"/>
<path d="M58.9026 27.1932H57.1883V28.4682H58.9026V27.1932Z" fill="#345E40"/>
<path d="M58.9026 21.3884H57.1883V24.3074H58.9026V21.3884Z" fill="#345E40"/>
<path d="M58.9026 17.1942H57.1883V18.4692H58.9026V17.1942Z" fill="#345E40"/>
<path d="M58.0286 43.4325H42.6334C42.4075 43.4239 42.1938 43.3281 42.0371 43.1655C41.8804 43.0028 41.7929 42.7858 41.7931 42.5602V13.2351C41.7929 13.0094 41.8804 12.7924 42.0371 12.6298C42.1938 12.4671 42.4075 12.3714 42.6334 12.3627H58.0286C58.2604 12.3627 58.4827 12.4546 58.6466 12.6182C58.8105 12.7818 58.9025 13.0037 58.9025 13.2351L58.9026 17.1942C58.9026 17.4256 58.8105 17.6475 58.6466 17.8111C58.4827 17.9747 58.2604 18.0667 58.0286 18.0667C57.8027 18.058 57.5889 17.9622 57.4322 17.7996C57.2755 17.6369 57.1881 17.4199 57.1883 17.1942L57.1882 14.1074H43.5074V41.5871H57.1882V28.5016C57.1881 28.2759 57.2755 28.0589 57.4322 27.8963C57.5889 27.7336 57.8027 27.6379 58.0286 27.6292C58.2604 27.6292 58.4827 27.7211 58.6466 27.8847C58.8105 28.0483 58.9025 28.2702 58.9025 28.5016V42.426C58.9221 42.5512 58.914 42.6793 58.879 42.8011C58.8439 42.923 58.7826 43.0358 58.6994 43.1316C58.6163 43.2274 58.5131 43.3039 58.3973 43.3559C58.2814 43.4079 58.1556 43.434 58.0286 43.4325Z" fill="#345E40"/>
<path d="M35.6754 26.0858H14.1626C13.9366 26.0771 13.7229 25.9814 13.5662 25.8187C13.4095 25.656 13.322 25.4391 13.3222 25.2134C13.3222 21.811 14.6739 18.5474 17.081 16.1384C19.4881 13.7294 22.7541 12.3716 26.1627 12.3627H35.6754C35.9072 12.3627 36.1295 12.4546 36.2934 12.6182C36.4573 12.7818 36.5494 13.0037 36.5494 13.2351V25.2134C36.5494 25.4448 36.4573 25.6666 36.2934 25.8302C36.1295 25.9939 35.9072 26.0858 35.6754 26.0858ZM15.0029 24.3746H34.8351V14.1074H26.0955C23.2904 14.1079 20.589 15.1659 18.5322 17.0697C16.4753 18.9736 15.2148 21.5826 15.0029 24.3746Z" fill="#345E40"/>
<path d="M27.6081 26.0858C27.3763 26.0858 27.154 25.9939 26.9901 25.8302C26.8262 25.6666 26.7341 25.4448 26.7341 25.2134V13.2351C26.7341 13.0037 26.8262 12.7818 26.9901 12.6182C27.154 12.4546 27.3763 12.3627 27.6081 12.3627C27.8398 12.3627 28.0621 12.4546 28.226 12.6182C28.3899 12.7818 28.482 13.0037 28.482 13.2351V25.2134C28.482 25.4448 28.3899 25.6666 28.226 25.8302C28.0621 25.9939 27.8398 26.0858 27.6081 26.0858Z" fill="#345E40"/>
<path d="M46.1629 30.1792C45.9311 30.1792 45.7088 30.0873 45.5449 29.9237C45.381 29.7601 45.2889 29.5382 45.2889 29.3068V25.7167C45.2889 25.4853 45.381 25.2634 45.5449 25.0998C45.7088 24.9362 45.9311 24.8443 46.1629 24.8443C46.3947 24.8443 46.617 24.9362 46.7809 25.0998C46.9448 25.2634 47.0368 25.4853 47.0368 25.7167V29.3068C47.0368 29.5382 46.9448 29.7601 46.7809 29.9237C46.617 30.0873 46.3947 30.1792 46.1629 30.1792Z" fill="#345E40"/>
<path d="M72.0792 43.4325H30.4988C30.3477 43.433 30.1992 43.3927 30.069 43.3159C29.9389 43.2391 29.8319 43.1287 29.7593 42.9964C29.136 41.8781 28.2246 40.9465 27.1194 40.2979C26.0143 39.6493 24.7555 39.3073 23.4735 39.3073C22.1915 39.3073 20.9328 39.6493 19.8277 40.2979C18.7225 40.9465 17.8111 41.8781 17.1877 42.9964C17.1152 43.1287 17.0082 43.2391 16.878 43.3159C16.7479 43.3927 16.5994 43.433 16.4482 43.4325H1.59092C1.46391 43.4341 1.33808 43.4079 1.22222 43.3559C1.10636 43.304 1.00326 43.2274 0.920068 43.1316C0.836877 43.0358 0.775602 42.923 0.740526 42.8011C0.705449 42.6793 0.697406 42.5513 0.716957 42.426V25.2805C0.774415 21.0829 1.99099 16.9824 4.23278 13.4305C6.47456 9.87859 9.65464 7.0129 13.423 5.14887C21.0869 1.18965 36.2132 1.42452 36.9527 1.42452C37.6922 1.42452 52.684 1.18965 60.4824 5.14887C64.2507 7.0129 67.4308 9.87859 69.6726 13.4305C71.9144 16.9824 73.1309 21.0829 73.1884 25.2805V42.426C73.2181 42.5737 73.2089 42.7266 73.1617 42.8698C73.1146 43.0129 73.0311 43.1415 72.9194 43.2428C72.8076 43.3442 72.6716 43.415 72.5243 43.4482C72.3771 43.4814 72.2237 43.4761 72.0792 43.4325ZM72.0792 43.4325L88.4491 43.4326C88.5733 43.4293 88.6953 43.3996 88.8071 43.3456C88.9188 43.2915 89.0178 43.2143 89.0973 43.119C89.1768 43.0238 89.2351 42.9127 89.2682 42.7932C89.3014 42.6737 89.3086 42.5485 89.2894 42.426C89.2894 42.2036 89.2009 41.9902 89.0433 41.8329C88.8857 41.6756 88.672 41.5872 88.4491 41.5872H72.1464C71.9235 41.5872 71.7098 41.6756 71.5522 41.8329C71.3946 41.9902 71.306 42.2036 71.306 42.426C71.2871 42.5433 71.2923 42.6631 71.3214 42.7783C71.3505 42.8934 71.4029 43.0014 71.4753 43.0956C71.5476 43.1899 71.6385 43.2684 71.7424 43.3263C71.8462 43.3842 71.9608 43.4204 72.0792 43.4325ZM57.1883 17.1942H58.9026M57.1883 17.1942V18.4692H58.9026V17.1942M57.1883 17.1942C57.1881 17.4199 57.2755 17.6369 57.4322 17.7996C57.5889 17.9622 57.8027 18.058 58.0286 18.0667C58.2604 18.0667 58.4827 17.9747 58.6466 17.8111C58.8105 17.6475 58.9026 17.4256 58.9026 17.1942M57.1883 17.1942L57.1882 14.1074H43.5074V41.5871H57.1882V28.5016C57.1881 28.2759 57.2755 28.0589 57.4322 27.8963C57.5889 27.7336 57.8027 27.6379 58.0286 27.6292C58.2604 27.6292 58.4827 27.7211 58.6466 27.8847C58.8105 28.0483 58.9025 28.2702 58.9025 28.5016V42.426C58.9221 42.5512 58.914 42.6793 58.879 42.8011C58.8439 42.923 58.7826 43.0358 58.6994 43.1316C58.6163 43.2274 58.5131 43.3039 58.3973 43.3559C58.2814 43.4079 58.1556 43.434 58.0286 43.4325H42.6334C42.4075 43.4239 42.1938 43.3281 42.0371 43.1655C41.8804 43.0028 41.7929 42.7858 41.7931 42.5602V13.2351C41.7929 13.0094 41.8804 12.7924 42.0371 12.6298C42.1938 12.4671 42.4075 12.3714 42.6334 12.3627H58.0286C58.2604 12.3627 58.4827 12.4546 58.6466 12.6182C58.8105 12.7818 58.9025 13.0037 58.9025 13.2351L58.9026 17.1942M72.0791 35.9503H61.995C61.7689 35.9504 61.5515 35.8631 61.3886 35.7067C61.2256 35.5503 61.1297 35.337 61.121 35.1115C61.121 34.8801 61.2131 34.6582 61.377 34.4946C61.5409 34.331 61.7632 34.2391 61.995 34.2391H72.0791C72.3109 34.2391 72.5332 34.331 72.6971 34.4946C72.861 34.6582 72.9531 34.8801 72.9531 35.1115C72.9444 35.337 72.8485 35.5503 72.6855 35.7067C72.5226 35.8631 72.3052 35.9504 72.0791 35.9503ZM23.4735 55.2431C21.7117 55.2431 19.9895 54.7216 18.5247 53.7446C17.0598 52.7676 15.9181 51.379 15.2439 49.7543C14.5697 48.1296 14.3933 46.3418 14.737 44.617C15.0807 42.8922 15.9291 41.3079 17.1748 40.0644C18.4206 38.8209 20.0078 37.9741 21.7357 37.631C23.4636 37.2879 25.2547 37.464 26.8823 38.137C28.51 38.81 29.9012 39.9496 30.88 41.4118C31.8588 42.874 32.3812 44.5931 32.3812 46.3516C32.3812 48.7098 31.4427 50.9714 29.7722 52.6389C28.1017 54.3063 25.836 55.2431 23.4735 55.2431ZM23.4735 39.1713C22.0508 39.1713 20.66 39.5925 19.4771 40.3814C18.2941 41.1704 17.3722 42.2918 16.8277 43.6039C16.2833 44.9159 16.1408 46.3596 16.4184 47.7524C16.6959 49.1453 17.381 50.4247 18.387 51.4289C19.393 52.433 20.6748 53.1169 22.0702 53.3939C23.4655 53.671 24.9119 53.5288 26.2263 52.9854C27.5407 52.4419 28.6642 51.5216 29.4546 50.3408C30.245 49.16 30.6669 47.7718 30.6669 46.3516C30.6669 44.4473 29.909 42.621 28.56 41.2744C27.211 39.9278 25.3813 39.1713 23.4735 39.1713ZM71.306 41.5872V25.2805C71.2595 21.3646 70.1258 17.5384 68.031 14.2272C65.9363 10.916 62.9625 8.2496 59.4404 6.52453C52.1798 2.80018 37.0199 3.16926 36.8518 3.16926C36.6838 3.16926 21.4903 2.80018 14.1625 6.52453C10.6529 8.25892 7.6929 10.9293 5.61042 14.2398C3.52794 17.5503 2.40431 21.3717 2.36403 25.2805V41.5872H15.8096C16.6127 40.3189 17.7243 39.2742 19.0408 38.5502C20.3573 37.8262 21.836 37.4466 23.3391 37.4466C24.8422 37.4466 26.3208 37.8262 27.6373 38.5502C28.9539 39.2742 30.0655 40.3189 30.8686 41.5872H71.306ZM57.1883 27.1932H58.9026V28.4682H57.1883V27.1932ZM57.1883 21.3884H58.9026V24.3074H57.1883V21.3884ZM35.6754 26.0858H14.1626C13.9366 26.0771 13.7229 25.9814 13.5662 25.8187C13.4095 25.656 13.322 25.4391 13.3222 25.2134C13.3222 21.811 14.6739 18.5474 17.081 16.1384C19.4881 13.7294 22.7541 12.3716 26.1627 12.3627H35.6754C35.9072 12.3627 36.1295 12.4546 36.2934 12.6182C36.4573 12.7818 36.5494 13.0037 36.5494 13.2351V25.2134C36.5494 25.4448 36.4573 25.6666 36.2934 25.8302C36.1295 25.9939 35.9072 26.0858 35.6754 26.0858ZM15.0029 24.3746H34.8351V14.1074H26.0955C23.2904 14.1079 20.589 15.1659 18.5322 17.0697C16.4753 18.9736 15.2148 21.5826 15.0029 24.3746ZM27.6081 26.0858C27.3763 26.0858 27.154 25.9939 26.9901 25.8302C26.8262 25.6666 26.7341 25.4448 26.7341 25.2134V13.2351C26.7341 13.0037 26.8262 12.7818 26.9901 12.6182C27.154 12.4546 27.3763 12.3627 27.6081 12.3627C27.8398 12.3627 28.0621 12.4546 28.226 12.6182C28.3899 12.7818 28.482 13.0037 28.482 13.2351V25.2134C28.482 25.4448 28.3899 25.6666 28.226 25.8302C28.0621 25.9939 27.8398 26.0858 27.6081 26.0858ZM46.1629 30.1792C45.9311 30.1792 45.7088 30.0873 45.5449 29.9237C45.381 29.7601 45.2889 29.5382 45.2889 29.3068V25.7167C45.2889 25.4853 45.381 25.2634 45.5449 25.0998C45.7088 24.9362 45.9311 24.8443 46.1629 24.8443C46.3947 24.8443 46.617 24.9362 46.7809 25.0998C46.9448 25.2634 47.0368 25.4853 47.0368 25.7167V29.3068C47.0368 29.5382 46.9448 29.7601 46.7809 29.9237C46.617 30.0873 46.3947 30.1792 46.1629 30.1792Z" stroke="#345E40" stroke-width="0.912224"/>
</svg>
