<svg width="58" height="55" viewBox="0 0 58 55" fill="none" xmlns="http://www.w3.org/2000/svg">
<path fill-rule="evenodd" clip-rule="evenodd" d="M0.526367 52.9617C0.526367 52.2539 1.10256 51.6802 1.81334 51.6802H23.6918C24.4026 51.6802 24.9788 52.2539 24.9788 52.9617C24.9788 53.6694 24.4026 54.2431 23.6918 54.2431H1.81334C1.10256 54.2431 0.526367 53.6694 0.526367 52.9617Z" fill="#345E40"/>
<path fill-rule="evenodd" clip-rule="evenodd" d="M8.24819 42.71C8.95896 42.71 9.53516 43.2837 9.53516 43.9915V52.9617C9.53516 53.6694 8.95896 54.2431 8.24819 54.2431C7.53741 54.2431 6.96122 53.6694 6.96122 52.9617V43.9915C6.96122 43.2837 7.53741 42.71 8.24819 42.71Z" fill="#345E40"/>
<path fill-rule="evenodd" clip-rule="evenodd" d="M49.4312 42.71C50.142 42.71 50.7182 43.2837 50.7182 43.9915V52.9617C50.7182 53.6694 50.142 54.2431 49.4312 54.2431C48.7204 54.2431 48.1442 53.6694 48.1442 52.9617V43.9915C48.1442 43.2837 48.7204 42.71 49.4312 42.71Z" fill="#345E40"/>
<path fill-rule="evenodd" clip-rule="evenodd" d="M49.4312 33.7398C50.142 33.7398 50.7182 34.3135 50.7182 35.0212V43.9915C50.7182 44.6992 50.142 45.2729 49.4312 45.2729H35.2746C34.5638 45.2729 33.9876 44.6992 33.9876 43.9915C33.9876 43.2837 34.5638 42.71 35.2746 42.71H48.1442V35.0212C48.1442 34.3135 48.7204 33.7398 49.4312 33.7398Z" fill="#345E40"/>
<path fill-rule="evenodd" clip-rule="evenodd" d="M8.24819 33.7398C8.95896 33.7398 9.53516 34.3135 9.53516 35.0212V42.71H22.4049C23.1156 42.71 23.6918 43.2837 23.6918 43.9915C23.6918 44.6992 23.1156 45.2729 22.4049 45.2729H8.24819C7.53741 45.2729 6.96122 44.6992 6.96122 43.9915V35.0212C6.96122 34.3135 7.53741 33.7398 8.24819 33.7398Z" fill="#345E40"/>
<path fill-rule="evenodd" clip-rule="evenodd" d="M22.4049 26.051C22.4049 25.3433 22.981 24.7696 23.6918 24.7696H49.4312C50.142 24.7696 50.7182 25.3433 50.7182 26.051V35.0212C50.7182 35.729 50.142 36.3027 49.4312 36.3027H33.9876C33.2768 36.3027 32.7006 35.729 32.7006 35.0212C32.7006 34.3135 33.2768 33.7398 33.9876 33.7398H48.1442V27.3325H23.6918C22.981 27.3325 22.4049 26.7588 22.4049 26.051Z" fill="#345E40"/>
<path fill-rule="evenodd" clip-rule="evenodd" d="M6.96122 26.051C6.96122 25.3433 7.53741 24.7696 8.24819 24.7696H23.6918C24.4026 24.7696 24.9788 25.3433 24.9788 26.051C24.9788 26.7588 24.4026 27.3325 23.6918 27.3325H9.53516V33.7398H23.6918C24.4026 33.7398 24.9788 34.3135 24.9788 35.0212C24.9788 35.729 24.4026 36.3027 23.6918 36.3027H8.24819C7.53741 36.3027 6.96122 35.729 6.96122 35.0212V26.051Z" fill="#345E40"/>
<path fill-rule="evenodd" clip-rule="evenodd" d="M28.0107 0.723131C28.4898 0.321456 29.1896 0.321456 29.6687 0.723131L54.1211 21.2265C54.6648 21.6823 54.7344 22.4907 54.2765 23.0321C53.8187 23.5734 53.0068 23.6427 52.4631 23.1869L28.8397 3.37864L5.21626 23.1869C4.67258 23.6427 3.86069 23.5734 3.40286 23.0321C2.94502 22.4907 3.01461 21.6823 3.55829 21.2265L28.0107 0.723131Z" fill="#345E40"/>
<path fill-rule="evenodd" clip-rule="evenodd" d="M40.5229 1.70333C40.5229 0.995603 41.099 0.421875 41.8098 0.421875H49.4313C50.142 0.421875 50.7182 0.995603 50.7182 1.70333V18.3623C50.7182 19.07 50.142 19.6437 49.4313 19.6437C48.7205 19.6437 48.1443 19.07 48.1443 18.3623V2.98479H43.0968V6.82917C43.0968 7.5369 42.5206 8.11062 41.8098 8.11062C41.099 8.11062 40.5229 7.5369 40.5229 6.82917V1.70333Z" fill="#345E40"/>
<path fill-rule="evenodd" clip-rule="evenodd" d="M49.4312 18.3623C50.142 18.3623 50.7182 18.936 50.7182 19.6437V26.051C50.7182 26.7588 50.142 27.3325 49.4312 27.3325C48.7204 27.3325 48.1442 26.7588 48.1442 26.051V19.6437C48.1442 18.936 48.7204 18.3623 49.4312 18.3623Z" fill="#345E40"/>
<path fill-rule="evenodd" clip-rule="evenodd" d="M28.8397 11.955C26.7074 11.955 24.9788 13.6762 24.9788 15.7994C24.9788 17.9226 26.7074 19.6437 28.8397 19.6437C30.972 19.6437 32.7006 17.9226 32.7006 15.7994C32.7006 13.6762 30.972 11.955 28.8397 11.955ZM22.4049 15.7994C22.4049 12.2607 25.2858 9.39208 28.8397 9.39208C32.3936 9.39208 35.2746 12.2607 35.2746 15.7994C35.2746 19.338 32.3936 22.2067 28.8397 22.2067C25.2858 22.2067 22.4049 19.338 22.4049 15.7994Z" fill="#345E40"/>
<path fill-rule="evenodd" clip-rule="evenodd" d="M21.1179 35.0212C21.1179 34.3135 21.6941 33.7398 22.4049 33.7398H35.2746C35.9853 33.7398 36.5615 34.3135 36.5615 35.0212V52.9617C36.5615 53.6694 35.9853 54.2431 35.2746 54.2431H22.4049C21.6941 54.2431 21.1179 53.6694 21.1179 52.9617V35.0212ZM23.6918 36.3027V51.6802H33.9876V36.3027H23.6918Z" fill="#345E40"/>
<path fill-rule="evenodd" clip-rule="evenodd" d="M32.7006 52.9617C32.7006 52.2539 33.2768 51.6802 33.9876 51.6802H55.8661C56.5768 51.6802 57.153 52.2539 57.153 52.9617C57.153 53.6694 56.5768 54.2431 55.8661 54.2431H33.9876C33.2768 54.2431 32.7006 53.6694 32.7006 52.9617Z" fill="#345E40"/>
</svg>
