<svg width="96" height="55" viewBox="0 0 96 55" fill="none" xmlns="http://www.w3.org/2000/svg">
<path fill-rule="evenodd" clip-rule="evenodd" d="M34.4107 46.5544C34.4107 45.6604 35.1254 44.9357 36.0071 44.9357H67.9353C68.817 44.9357 69.5317 45.6604 69.5317 46.5544C69.5317 47.4483 68.817 48.173 67.9353 48.173H36.0071C35.1254 48.173 34.4107 47.4483 34.4107 46.5544Z" fill="#345E40"/>
<path fill-rule="evenodd" clip-rule="evenodd" d="M22.0384 42.103C19.6138 42.103 17.6483 44.0959 17.6483 46.5544C17.6483 49.0128 19.6138 51.0057 22.0384 51.0057C24.463 51.0057 26.4285 49.0128 26.4285 46.5544C26.4285 44.0959 24.463 42.103 22.0384 42.103ZM14.4554 46.5544C14.4554 42.308 17.8504 38.8656 22.0384 38.8656C26.2264 38.8656 29.6214 42.308 29.6214 46.5544C29.6214 50.8007 26.2264 54.2431 22.0384 54.2431C17.8504 54.2431 14.4554 50.8007 14.4554 46.5544Z" fill="#345E40"/>
<path fill-rule="evenodd" clip-rule="evenodd" d="M73.9219 42.103C71.4973 42.103 69.5317 44.0959 69.5317 46.5544C69.5317 49.0128 71.4973 51.0057 73.9219 51.0057C76.3465 51.0057 78.312 49.0128 78.312 46.5544C78.312 44.0959 76.3465 42.103 73.9219 42.103ZM66.3389 46.5544C66.3389 42.308 69.7339 38.8656 73.9219 38.8656C78.1098 38.8656 81.5049 42.308 81.5049 46.5544C81.5049 50.8007 78.1098 54.2431 73.9219 54.2431C69.7339 54.2431 66.3389 50.8007 66.3389 46.5544Z" fill="#345E40"/>
<path fill-rule="evenodd" clip-rule="evenodd" d="M83.2855 12.6865C84.0993 12.3427 85.034 12.7329 85.3731 13.5581L95.3507 37.8384C95.5681 38.3674 95.4933 38.9736 95.1542 39.4322L89.1676 47.5256C88.8661 47.9332 88.393 48.173 87.8905 48.173H79.9084C79.0268 48.173 78.312 47.4483 78.312 46.5544C78.312 45.6604 79.0268 44.9357 79.9084 44.9357H87.0923L92.0526 38.2297L82.4259 14.8033C82.0868 13.9781 82.4716 13.0304 83.2855 12.6865Z" fill="#345E40"/>
<path fill-rule="evenodd" clip-rule="evenodd" d="M71.9264 12.562C72.808 12.562 73.5228 13.2867 73.5228 14.1807V28.7488H89.886C90.7677 28.7488 91.4824 29.4736 91.4824 30.3675C91.4824 31.2615 90.7677 31.9862 89.886 31.9862H71.9264C71.0447 31.9862 70.33 31.2615 70.33 30.3675V14.1807C70.33 13.2867 71.0447 12.562 71.9264 12.562Z" fill="#345E40"/>
<path fill-rule="evenodd" clip-rule="evenodd" d="M2.70783 2.67387C4.1299 1.23196 6.05864 0.421875 8.06978 0.421875H81.9039V2.04056C81.9039 0.421875 81.9043 0.421875 81.9048 0.421875L81.9092 0.421881L81.9189 0.421911L81.9511 0.422113C81.9782 0.422334 82.0164 0.422761 82.065 0.423582C82.1621 0.425223 82.3008 0.428443 82.4753 0.434762C82.824 0.447388 83.3172 0.472454 83.9073 0.522311C85.0803 0.621429 86.6689 0.821172 88.2776 1.22896C89.8638 1.63104 91.596 2.26607 92.9641 3.30642C94.3771 4.38095 95.4734 5.9572 95.4734 8.11062C95.4734 11.2092 93.0938 12.6108 91.3886 13.1871C90.4988 13.4878 89.6316 13.632 89.0022 13.7029C88.6834 13.7388 88.4157 13.757 88.2236 13.7663C88.1274 13.7709 88.0496 13.7734 87.9932 13.7746C87.9649 13.7753 87.942 13.7756 87.9248 13.7758L87.9032 13.776L87.8957 13.776L87.8916 13.776C87.891 13.776 87.8905 13.776 87.8905 12.1573V13.776H63.9443C63.0626 13.776 62.3478 13.0513 62.3478 12.1573C62.3478 11.2634 63.0626 10.5386 63.9443 10.5386L87.8886 10.5387L87.8895 10.5386L87.8905 10.5386C87.8959 10.5386 87.9066 10.5384 87.9222 10.5381C87.9535 10.5374 88.0043 10.5358 88.0718 10.5326C88.2071 10.526 88.4071 10.5126 88.6496 10.4853C89.1426 10.4298 89.772 10.321 90.3789 10.1159C91.667 9.68053 92.2806 9.05876 92.2806 8.11062C92.2806 7.22902 91.8803 6.52899 91.0484 5.89631C90.1714 5.22946 88.9104 4.72635 87.5033 4.36967C86.1187 4.0187 84.714 3.83907 83.6421 3.7485C83.1097 3.70351 82.6675 3.68115 82.3614 3.67007C82.2085 3.66453 82.09 3.66182 82.0118 3.6605C81.9726 3.65984 81.9436 3.65952 81.9254 3.65938L81.9062 3.65925L81.9039 3.65924H8.06978C6.90546 3.65924 5.78882 4.12823 4.9655 4.96304C4.14218 5.79784 3.67964 6.93006 3.67964 8.11062V44.9357H16.0518C16.9335 44.9357 17.6483 45.6604 17.6483 46.5544C17.6483 47.4483 16.9335 48.173 16.0518 48.173H2.08323C1.20156 48.173 0.486816 47.4483 0.486816 46.5544V8.11062C0.486816 6.07143 1.28576 4.11578 2.70783 2.67387Z" fill="#345E40"/>
<path fill-rule="evenodd" clip-rule="evenodd" d="M40.3972 12.1573C40.3972 11.2634 41.1119 10.5386 41.9936 10.5386H55.9622C56.8439 10.5386 57.5586 11.2634 57.5586 12.1573V46.5544C57.5586 47.4483 56.8439 48.173 55.9622 48.173H41.9936C41.1119 48.173 40.3972 47.4483 40.3972 46.5544V12.1573ZM43.59 13.776V44.9357H54.3658V13.776H43.59Z" fill="#345E40"/>
<path fill-rule="evenodd" clip-rule="evenodd" d="M12.4599 12.1573C12.4599 11.2634 13.1747 10.5386 14.0563 10.5386H32.016C32.8977 10.5386 33.6124 11.2634 33.6124 12.1573V24.2975C33.6124 25.1914 32.8977 25.9161 32.016 25.9161H14.0563C13.1747 25.9161 12.4599 25.1914 12.4599 24.2975V12.1573ZM15.6527 13.776V22.6788H30.4196V13.776H15.6527Z" fill="#345E40"/>
</svg>
